<mxfile host="Electron" agent="Mozilla/5.0 (Macintosh; Intel Mac OS X 10_15_7) AppleWebKit/537.36 (KHTML, like Gecko) draw.io/24.7.5 Chrome/126.0.6478.183 Electron/31.3.0 Safari/537.36" version="24.7.5">
  <diagram name="Seite-1" id="5M1GoSNxU9iCWXKsDYk7">
    <mxGraphModel dx="1340" dy="790" grid="0" gridSize="10" guides="1" tooltips="1" connect="1" arrows="1" fold="1" page="0" pageScale="1" pageWidth="827" pageHeight="1169" math="0" shadow="1">
      <root>
        <mxCell id="0" />
        <mxCell id="1" parent="0" />
        <mxCell id="3njOR3xyvIwaTRATh9eq-1" value="Person&lt;div&gt;Max Mustermann&lt;/div&gt;" style="rounded=1;whiteSpace=wrap;html=1;" parent="1" vertex="1">
          <mxGeometry x="100" y="30" width="120" height="60" as="geometry" />
        </mxCell>
        <mxCell id="3njOR3xyvIwaTRATh9eq-2" value="Car&lt;div&gt;VW Polo&lt;/div&gt;" style="rounded=1;whiteSpace=wrap;html=1;" parent="1" vertex="1">
          <mxGeometry x="396" y="30" width="120" height="60" as="geometry" />
        </mxCell>
        <mxCell id="3njOR3xyvIwaTRATh9eq-3" value="" style="endArrow=none;html=1;rounded=0;exitX=1;exitY=0.5;exitDx=0;exitDy=0;entryX=0;entryY=0.5;entryDx=0;entryDy=0;dashed=1;dashPattern=8 8;endFill=0;" parent="1" source="3njOR3xyvIwaTRATh9eq-1" target="3njOR3xyvIwaTRATh9eq-2" edge="1">
          <mxGeometry width="50" height="50" relative="1" as="geometry">
            <mxPoint x="390" y="350" as="sourcePoint" />
            <mxPoint x="440" y="300" as="targetPoint" />
          </mxGeometry>
        </mxCell>
        <mxCell id="3njOR3xyvIwaTRATh9eq-6" value="&lt;div&gt;&lt;span style=&quot;background-color: initial;&quot;&gt;carIAmDrivingToday&amp;nbsp; &amp;nbsp;&lt;/span&gt;&lt;span style=&quot;background-color: initial;&quot;&gt;0..1&lt;/span&gt;&lt;/div&gt;&lt;div&gt;&lt;br&gt;&lt;/div&gt;" style="edgeLabel;html=1;align=center;verticalAlign=middle;resizable=0;points=[];labelBackgroundColor=none;" parent="3njOR3xyvIwaTRATh9eq-3" vertex="1" connectable="0">
          <mxGeometry x="-0.1333" relative="1" as="geometry">
            <mxPoint x="2" y="16" as="offset" />
          </mxGeometry>
        </mxCell>
        <mxCell id="3njOR3xyvIwaTRATh9eq-4" value="" style="endArrow=classic;html=1;rounded=0;exitX=0.5;exitY=1;exitDx=0;exitDy=0;entryX=0.5;entryY=1;entryDx=0;entryDy=0;" parent="1" source="3njOR3xyvIwaTRATh9eq-2" target="3njOR3xyvIwaTRATh9eq-1" edge="1">
          <mxGeometry width="50" height="50" relative="1" as="geometry">
            <mxPoint x="390" y="350" as="sourcePoint" />
            <mxPoint x="440" y="300" as="targetPoint" />
            <Array as="points">
              <mxPoint x="456" y="120" />
              <mxPoint x="250" y="120" />
              <mxPoint x="160" y="120" />
            </Array>
          </mxGeometry>
        </mxCell>
        <mxCell id="3njOR3xyvIwaTRATh9eq-5" value="owner&amp;nbsp; &amp;nbsp;&amp;nbsp;&lt;span style=&quot;background-color: initial;&quot;&gt;1..1&lt;/span&gt;" style="edgeLabel;html=1;align=center;verticalAlign=middle;resizable=0;points=[];labelBackgroundColor=none;" parent="3njOR3xyvIwaTRATh9eq-4" vertex="1" connectable="0">
          <mxGeometry x="-0.1" y="-1" relative="1" as="geometry">
            <mxPoint x="-20" y="9" as="offset" />
          </mxGeometry>
        </mxCell>
        <mxCell id="3njOR3xyvIwaTRATh9eq-19" style="edgeStyle=orthogonalEdgeStyle;rounded=0;orthogonalLoop=1;jettySize=auto;html=1;exitX=0;exitY=0.5;exitDx=0;exitDy=0;startArrow=block;startFill=1;endArrow=none;endFill=0;" parent="1" source="3njOR3xyvIwaTRATh9eq-7" target="3njOR3xyvIwaTRATh9eq-18" edge="1">
          <mxGeometry relative="1" as="geometry" />
        </mxCell>
        <mxCell id="3njOR3xyvIwaTRATh9eq-7" value="Person&lt;div&gt;Max Mustermann&lt;/div&gt;" style="rounded=1;whiteSpace=wrap;html=1;" parent="1" vertex="1">
          <mxGeometry x="90" y="250" width="120" height="60" as="geometry" />
        </mxCell>
        <mxCell id="3njOR3xyvIwaTRATh9eq-10" style="edgeStyle=orthogonalEdgeStyle;rounded=0;orthogonalLoop=1;jettySize=auto;html=1;exitX=1;exitY=0.5;exitDx=0;exitDy=0;entryX=0;entryY=0.5;entryDx=0;entryDy=0;endArrow=block;endFill=1;dashed=1;dashPattern=12 12;startArrow=none;startFill=0;" parent="1" source="3njOR3xyvIwaTRATh9eq-8" target="3njOR3xyvIwaTRATh9eq-9" edge="1">
          <mxGeometry relative="1" as="geometry" />
        </mxCell>
        <mxCell id="3njOR3xyvIwaTRATh9eq-8" value="Person&lt;div&gt;Max Mustermann&lt;/div&gt;" style="rounded=1;whiteSpace=wrap;html=1;" parent="1" vertex="1">
          <mxGeometry x="90" y="420" width="120" height="60" as="geometry" />
        </mxCell>
        <mxCell id="3njOR3xyvIwaTRATh9eq-9" value="Car&lt;div&gt;VW Polo&lt;/div&gt;" style="rounded=1;whiteSpace=wrap;html=1;" parent="1" vertex="1">
          <mxGeometry x="320" y="420" width="120" height="60" as="geometry" />
        </mxCell>
        <mxCell id="3njOR3xyvIwaTRATh9eq-11" value="// 1" style="text;html=1;align=center;verticalAlign=middle;whiteSpace=wrap;rounded=0;" parent="1" vertex="1">
          <mxGeometry x="-64" y="208" width="60" height="30" as="geometry" />
        </mxCell>
        <mxCell id="3njOR3xyvIwaTRATh9eq-12" value="// 2" style="text;html=1;align=center;verticalAlign=middle;whiteSpace=wrap;rounded=0;" parent="1" vertex="1">
          <mxGeometry x="-64" y="380" width="60" height="30" as="geometry" />
        </mxCell>
        <mxCell id="3njOR3xyvIwaTRATh9eq-13" style="edgeStyle=orthogonalEdgeStyle;rounded=0;orthogonalLoop=1;jettySize=auto;html=1;exitX=1;exitY=0.5;exitDx=0;exitDy=0;entryX=0;entryY=0.5;entryDx=0;entryDy=0;dashed=1;dashPattern=12 12;endArrow=block;endFill=1;" parent="1" source="3njOR3xyvIwaTRATh9eq-14" target="3njOR3xyvIwaTRATh9eq-15" edge="1">
          <mxGeometry relative="1" as="geometry" />
        </mxCell>
        <mxCell id="3njOR3xyvIwaTRATh9eq-14" value="Person&lt;div&gt;Max Mustermann&lt;/div&gt;" style="rounded=1;whiteSpace=wrap;html=1;" parent="1" vertex="1">
          <mxGeometry x="90" y="560" width="120" height="60" as="geometry" />
        </mxCell>
        <mxCell id="3njOR3xyvIwaTRATh9eq-17" style="edgeStyle=orthogonalEdgeStyle;rounded=0;orthogonalLoop=1;jettySize=auto;html=1;exitX=0.5;exitY=1;exitDx=0;exitDy=0;entryX=0.5;entryY=1;entryDx=0;entryDy=0;" parent="1" source="3njOR3xyvIwaTRATh9eq-15" target="3njOR3xyvIwaTRATh9eq-14" edge="1">
          <mxGeometry relative="1" as="geometry" />
        </mxCell>
        <mxCell id="3njOR3xyvIwaTRATh9eq-15" value="Car&lt;div&gt;VW Polo&lt;/div&gt;" style="rounded=1;whiteSpace=wrap;html=1;" parent="1" vertex="1">
          <mxGeometry x="320" y="560" width="120" height="60" as="geometry" />
        </mxCell>
        <mxCell id="3njOR3xyvIwaTRATh9eq-16" value="// 3" style="text;html=1;align=center;verticalAlign=middle;whiteSpace=wrap;rounded=0;" parent="1" vertex="1">
          <mxGeometry x="-64" y="517" width="60" height="30" as="geometry" />
        </mxCell>
        <mxCell id="3njOR3xyvIwaTRATh9eq-18" value="person" style="text;html=1;align=center;verticalAlign=middle;whiteSpace=wrap;rounded=0;" parent="1" vertex="1">
          <mxGeometry x="-30" y="265" width="50" height="30" as="geometry" />
        </mxCell>
        <mxCell id="3njOR3xyvIwaTRATh9eq-23" style="edgeStyle=orthogonalEdgeStyle;rounded=0;orthogonalLoop=1;jettySize=auto;html=1;exitX=1;exitY=0.5;exitDx=0;exitDy=0;entryX=0;entryY=0.5;entryDx=0;entryDy=0;" parent="1" source="3njOR3xyvIwaTRATh9eq-22" target="3njOR3xyvIwaTRATh9eq-8" edge="1">
          <mxGeometry relative="1" as="geometry" />
        </mxCell>
        <mxCell id="3njOR3xyvIwaTRATh9eq-22" value="person" style="text;html=1;align=center;verticalAlign=middle;whiteSpace=wrap;rounded=0;" parent="1" vertex="1">
          <mxGeometry x="-30" y="435" width="50" height="30" as="geometry" />
        </mxCell>
        <mxCell id="3njOR3xyvIwaTRATh9eq-26" style="edgeStyle=orthogonalEdgeStyle;rounded=0;orthogonalLoop=1;jettySize=auto;html=1;exitX=1;exitY=0.5;exitDx=0;exitDy=0;entryX=0;entryY=0.5;entryDx=0;entryDy=0;" parent="1" source="3njOR3xyvIwaTRATh9eq-25" target="3njOR3xyvIwaTRATh9eq-14" edge="1">
          <mxGeometry relative="1" as="geometry" />
        </mxCell>
        <mxCell id="3njOR3xyvIwaTRATh9eq-25" value="person" style="text;html=1;align=center;verticalAlign=middle;whiteSpace=wrap;rounded=0;" parent="1" vertex="1">
          <mxGeometry x="-30" y="575" width="50" height="30" as="geometry" />
        </mxCell>
        <mxCell id="3njOR3xyvIwaTRATh9eq-28" style="edgeStyle=orthogonalEdgeStyle;rounded=0;orthogonalLoop=1;jettySize=auto;html=1;exitX=0;exitY=0.5;exitDx=0;exitDy=0;entryX=1;entryY=0.5;entryDx=0;entryDy=0;" parent="1" source="3njOR3xyvIwaTRATh9eq-27" target="3njOR3xyvIwaTRATh9eq-9" edge="1">
          <mxGeometry relative="1" as="geometry" />
        </mxCell>
        <mxCell id="3njOR3xyvIwaTRATh9eq-27" value="car" style="text;html=1;align=center;verticalAlign=middle;whiteSpace=wrap;rounded=0;" parent="1" vertex="1">
          <mxGeometry x="550" y="435" width="50" height="30" as="geometry" />
        </mxCell>
        <mxCell id="3njOR3xyvIwaTRATh9eq-30" style="edgeStyle=orthogonalEdgeStyle;rounded=0;orthogonalLoop=1;jettySize=auto;html=1;exitX=0;exitY=0.5;exitDx=0;exitDy=0;entryX=1;entryY=0.5;entryDx=0;entryDy=0;" parent="1" source="3njOR3xyvIwaTRATh9eq-29" target="3njOR3xyvIwaTRATh9eq-15" edge="1">
          <mxGeometry relative="1" as="geometry" />
        </mxCell>
        <mxCell id="3njOR3xyvIwaTRATh9eq-29" value="car" style="text;html=1;align=center;verticalAlign=middle;whiteSpace=wrap;rounded=0;" parent="1" vertex="1">
          <mxGeometry x="550" y="575" width="50" height="30" as="geometry" />
        </mxCell>
        <mxCell id="3njOR3xyvIwaTRATh9eq-31" style="edgeStyle=orthogonalEdgeStyle;rounded=0;orthogonalLoop=1;jettySize=auto;html=1;exitX=1;exitY=0.5;exitDx=0;exitDy=0;entryX=0;entryY=0.5;entryDx=0;entryDy=0;dashed=1;dashPattern=8 8;" parent="1" source="3njOR3xyvIwaTRATh9eq-32" target="3njOR3xyvIwaTRATh9eq-34" edge="1">
          <mxGeometry relative="1" as="geometry" />
        </mxCell>
        <mxCell id="3njOR3xyvIwaTRATh9eq-32" value="Person&lt;div&gt;Max Mustermann&lt;/div&gt;" style="rounded=1;whiteSpace=wrap;html=1;" parent="1" vertex="1">
          <mxGeometry x="80" y="720" width="120" height="60" as="geometry" />
        </mxCell>
        <mxCell id="3njOR3xyvIwaTRATh9eq-33" style="edgeStyle=orthogonalEdgeStyle;rounded=0;orthogonalLoop=1;jettySize=auto;html=1;exitX=0.5;exitY=1;exitDx=0;exitDy=0;entryX=0.5;entryY=1;entryDx=0;entryDy=0;" parent="1" source="3njOR3xyvIwaTRATh9eq-34" target="3njOR3xyvIwaTRATh9eq-32" edge="1">
          <mxGeometry relative="1" as="geometry" />
        </mxCell>
        <mxCell id="3njOR3xyvIwaTRATh9eq-34" value="Car&lt;div&gt;VW Polo&lt;/div&gt;" style="rounded=1;whiteSpace=wrap;html=1;" parent="1" vertex="1">
          <mxGeometry x="310" y="720" width="120" height="60" as="geometry" />
        </mxCell>
        <mxCell id="3njOR3xyvIwaTRATh9eq-35" value="// 4" style="text;html=1;align=center;verticalAlign=middle;whiteSpace=wrap;rounded=0;" parent="1" vertex="1">
          <mxGeometry x="-64" y="679" width="60" height="30" as="geometry" />
        </mxCell>
        <mxCell id="3njOR3xyvIwaTRATh9eq-36" style="edgeStyle=orthogonalEdgeStyle;rounded=0;orthogonalLoop=1;jettySize=auto;html=1;exitX=1;exitY=0.5;exitDx=0;exitDy=0;entryX=0;entryY=0.5;entryDx=0;entryDy=0;" parent="1" source="3njOR3xyvIwaTRATh9eq-37" target="3njOR3xyvIwaTRATh9eq-32" edge="1">
          <mxGeometry relative="1" as="geometry" />
        </mxCell>
        <mxCell id="3njOR3xyvIwaTRATh9eq-37" value="person" style="text;html=1;align=center;verticalAlign=middle;whiteSpace=wrap;rounded=0;" parent="1" vertex="1">
          <mxGeometry x="-40" y="735" width="50" height="30" as="geometry" />
        </mxCell>
        <mxCell id="3njOR3xyvIwaTRATh9eq-38" style="edgeStyle=orthogonalEdgeStyle;rounded=0;orthogonalLoop=1;jettySize=auto;html=1;exitX=0;exitY=0.5;exitDx=0;exitDy=0;entryX=1;entryY=0.5;entryDx=0;entryDy=0;" parent="1" source="3njOR3xyvIwaTRATh9eq-39" target="3njOR3xyvIwaTRATh9eq-34" edge="1">
          <mxGeometry relative="1" as="geometry" />
        </mxCell>
        <mxCell id="3njOR3xyvIwaTRATh9eq-39" value="car" style="text;html=1;align=center;verticalAlign=middle;whiteSpace=wrap;rounded=0;" parent="1" vertex="1">
          <mxGeometry x="540" y="735" width="50" height="30" as="geometry" />
        </mxCell>
        <mxCell id="3njOR3xyvIwaTRATh9eq-40" value="person2" style="text;html=1;align=center;verticalAlign=middle;whiteSpace=wrap;rounded=0;" parent="1" vertex="1">
          <mxGeometry x="-40" y="780" width="50" height="30" as="geometry" />
        </mxCell>
        <mxCell id="3njOR3xyvIwaTRATh9eq-41" style="edgeStyle=orthogonalEdgeStyle;rounded=0;orthogonalLoop=1;jettySize=auto;html=1;exitX=1;exitY=0.5;exitDx=0;exitDy=0;entryX=-0.025;entryY=0.642;entryDx=0;entryDy=0;entryPerimeter=0;" parent="1" source="3njOR3xyvIwaTRATh9eq-40" target="3njOR3xyvIwaTRATh9eq-32" edge="1">
          <mxGeometry relative="1" as="geometry" />
        </mxCell>
        <mxCell id="3njOR3xyvIwaTRATh9eq-42" style="edgeStyle=orthogonalEdgeStyle;rounded=0;orthogonalLoop=1;jettySize=auto;html=1;exitX=1;exitY=0.5;exitDx=0;exitDy=0;entryX=0;entryY=0.5;entryDx=0;entryDy=0;dashed=1;dashPattern=12 12;" parent="1" source="3njOR3xyvIwaTRATh9eq-43" target="3njOR3xyvIwaTRATh9eq-45" edge="1">
          <mxGeometry relative="1" as="geometry" />
        </mxCell>
        <mxCell id="3njOR3xyvIwaTRATh9eq-43" value="Person&lt;div&gt;Max Mustermann&lt;/div&gt;" style="rounded=1;whiteSpace=wrap;html=1;" parent="1" vertex="1">
          <mxGeometry x="80" y="880" width="120" height="60" as="geometry" />
        </mxCell>
        <mxCell id="3njOR3xyvIwaTRATh9eq-44" style="edgeStyle=orthogonalEdgeStyle;rounded=0;orthogonalLoop=1;jettySize=auto;html=1;exitX=0.5;exitY=1;exitDx=0;exitDy=0;entryX=0.5;entryY=1;entryDx=0;entryDy=0;" parent="1" source="3njOR3xyvIwaTRATh9eq-45" target="3njOR3xyvIwaTRATh9eq-43" edge="1">
          <mxGeometry relative="1" as="geometry" />
        </mxCell>
        <mxCell id="3njOR3xyvIwaTRATh9eq-45" value="Car&lt;div&gt;VW Polo&lt;/div&gt;" style="rounded=1;whiteSpace=wrap;html=1;" parent="1" vertex="1">
          <mxGeometry x="310" y="880" width="120" height="60" as="geometry" />
        </mxCell>
        <mxCell id="3njOR3xyvIwaTRATh9eq-46" style="edgeStyle=orthogonalEdgeStyle;rounded=0;orthogonalLoop=1;jettySize=auto;html=1;exitX=1;exitY=0.5;exitDx=0;exitDy=0;entryX=0;entryY=0.5;entryDx=0;entryDy=0;" parent="1" source="3njOR3xyvIwaTRATh9eq-47" target="3njOR3xyvIwaTRATh9eq-43" edge="1">
          <mxGeometry relative="1" as="geometry" />
        </mxCell>
        <mxCell id="3njOR3xyvIwaTRATh9eq-47" value="person" style="text;html=1;align=center;verticalAlign=middle;whiteSpace=wrap;rounded=0;" parent="1" vertex="1">
          <mxGeometry x="-40" y="895" width="50" height="30" as="geometry" />
        </mxCell>
        <mxCell id="3njOR3xyvIwaTRATh9eq-48" style="edgeStyle=orthogonalEdgeStyle;rounded=0;orthogonalLoop=1;jettySize=auto;html=1;exitX=0;exitY=0.5;exitDx=0;exitDy=0;entryX=1;entryY=0.5;entryDx=0;entryDy=0;" parent="1" source="3njOR3xyvIwaTRATh9eq-49" target="3njOR3xyvIwaTRATh9eq-45" edge="1">
          <mxGeometry relative="1" as="geometry" />
        </mxCell>
        <mxCell id="3njOR3xyvIwaTRATh9eq-49" value="car" style="text;html=1;align=center;verticalAlign=middle;whiteSpace=wrap;rounded=0;" parent="1" vertex="1">
          <mxGeometry x="540" y="895" width="50" height="30" as="geometry" />
        </mxCell>
        <mxCell id="3njOR3xyvIwaTRATh9eq-50" value="person2" style="text;html=1;align=center;verticalAlign=middle;whiteSpace=wrap;rounded=0;" parent="1" vertex="1">
          <mxGeometry x="-40" y="940" width="50" height="30" as="geometry" />
        </mxCell>
        <mxCell id="3njOR3xyvIwaTRATh9eq-51" style="edgeStyle=orthogonalEdgeStyle;rounded=0;orthogonalLoop=1;jettySize=auto;html=1;exitX=1;exitY=0.5;exitDx=0;exitDy=0;entryX=-0.025;entryY=0.642;entryDx=0;entryDy=0;entryPerimeter=0;" parent="1" source="3njOR3xyvIwaTRATh9eq-50" target="3njOR3xyvIwaTRATh9eq-43" edge="1">
          <mxGeometry relative="1" as="geometry" />
        </mxCell>
        <mxCell id="3njOR3xyvIwaTRATh9eq-52" value="// 5 , 7" style="text;html=1;align=center;verticalAlign=middle;whiteSpace=wrap;rounded=0;" parent="1" vertex="1">
          <mxGeometry x="-64" y="838" width="60" height="30" as="geometry" />
        </mxCell>
        <mxCell id="3njOR3xyvIwaTRATh9eq-55" style="edgeStyle=orthogonalEdgeStyle;rounded=0;orthogonalLoop=1;jettySize=auto;html=1;exitX=0;exitY=0.5;exitDx=0;exitDy=0;entryX=1;entryY=0.75;entryDx=0;entryDy=0;" parent="1" source="3njOR3xyvIwaTRATh9eq-54" target="3njOR3xyvIwaTRATh9eq-45" edge="1">
          <mxGeometry relative="1" as="geometry" />
        </mxCell>
        <mxCell id="3njOR3xyvIwaTRATh9eq-54" value="car2" style="text;html=1;align=center;verticalAlign=middle;whiteSpace=wrap;rounded=0;" parent="1" vertex="1">
          <mxGeometry x="540" y="925" width="50" height="30" as="geometry" />
        </mxCell>
        <mxCell id="3njOR3xyvIwaTRATh9eq-56" style="edgeStyle=orthogonalEdgeStyle;rounded=0;orthogonalLoop=1;jettySize=auto;html=1;exitX=1;exitY=0.5;exitDx=0;exitDy=0;entryX=0;entryY=0.5;entryDx=0;entryDy=0;dashed=1;dashPattern=12 12;" parent="1" source="3njOR3xyvIwaTRATh9eq-57" target="3njOR3xyvIwaTRATh9eq-59" edge="1">
          <mxGeometry relative="1" as="geometry" />
        </mxCell>
        <mxCell id="3njOR3xyvIwaTRATh9eq-57" value="Person&lt;div&gt;Max Mustermann&lt;/div&gt;" style="rounded=1;whiteSpace=wrap;html=1;" parent="1" vertex="1">
          <mxGeometry x="80" y="1030" width="120" height="60" as="geometry" />
        </mxCell>
        <mxCell id="3njOR3xyvIwaTRATh9eq-58" style="edgeStyle=orthogonalEdgeStyle;rounded=0;orthogonalLoop=1;jettySize=auto;html=1;exitX=0.5;exitY=1;exitDx=0;exitDy=0;entryX=0.5;entryY=1;entryDx=0;entryDy=0;" parent="1" source="3njOR3xyvIwaTRATh9eq-59" target="3njOR3xyvIwaTRATh9eq-57" edge="1">
          <mxGeometry relative="1" as="geometry" />
        </mxCell>
        <mxCell id="3njOR3xyvIwaTRATh9eq-59" value="Car&lt;div&gt;VW Polo&lt;/div&gt;" style="rounded=1;whiteSpace=wrap;html=1;" parent="1" vertex="1">
          <mxGeometry x="310" y="1030" width="120" height="60" as="geometry" />
        </mxCell>
        <mxCell id="3njOR3xyvIwaTRATh9eq-60" style="edgeStyle=orthogonalEdgeStyle;rounded=0;orthogonalLoop=1;jettySize=auto;html=1;exitX=1;exitY=0.5;exitDx=0;exitDy=0;entryX=0;entryY=0.5;entryDx=0;entryDy=0;" parent="1" source="3njOR3xyvIwaTRATh9eq-61" target="3njOR3xyvIwaTRATh9eq-57" edge="1">
          <mxGeometry relative="1" as="geometry" />
        </mxCell>
        <mxCell id="3njOR3xyvIwaTRATh9eq-61" value="person" style="text;html=1;align=center;verticalAlign=middle;whiteSpace=wrap;rounded=0;" parent="1" vertex="1">
          <mxGeometry x="-40" y="1045" width="50" height="30" as="geometry" />
        </mxCell>
        <mxCell id="3njOR3xyvIwaTRATh9eq-62" style="edgeStyle=orthogonalEdgeStyle;rounded=0;orthogonalLoop=1;jettySize=auto;html=1;exitX=0;exitY=0.5;exitDx=0;exitDy=0;entryX=1;entryY=0.5;entryDx=0;entryDy=0;" parent="1" source="3njOR3xyvIwaTRATh9eq-63" target="3njOR3xyvIwaTRATh9eq-59" edge="1">
          <mxGeometry relative="1" as="geometry" />
        </mxCell>
        <mxCell id="3njOR3xyvIwaTRATh9eq-63" value="car" style="text;html=1;align=center;verticalAlign=middle;whiteSpace=wrap;rounded=0;" parent="1" vertex="1">
          <mxGeometry x="540" y="1045" width="50" height="30" as="geometry" />
        </mxCell>
        <mxCell id="3njOR3xyvIwaTRATh9eq-64" value="person2" style="text;html=1;align=center;verticalAlign=middle;whiteSpace=wrap;rounded=0;" parent="1" vertex="1">
          <mxGeometry x="-40" y="1090" width="50" height="30" as="geometry" />
        </mxCell>
        <mxCell id="3njOR3xyvIwaTRATh9eq-65" style="edgeStyle=orthogonalEdgeStyle;rounded=0;orthogonalLoop=1;jettySize=auto;html=1;exitX=1;exitY=0.5;exitDx=0;exitDy=0;entryX=-0.025;entryY=0.642;entryDx=0;entryDy=0;entryPerimeter=0;" parent="1" source="3njOR3xyvIwaTRATh9eq-64" target="3njOR3xyvIwaTRATh9eq-57" edge="1">
          <mxGeometry relative="1" as="geometry" />
        </mxCell>
        <mxCell id="3njOR3xyvIwaTRATh9eq-66" value="// 6" style="text;html=1;align=center;verticalAlign=middle;whiteSpace=wrap;rounded=0;" parent="1" vertex="1">
          <mxGeometry x="-64" y="990" width="60" height="30" as="geometry" />
        </mxCell>
        <mxCell id="3njOR3xyvIwaTRATh9eq-67" style="edgeStyle=orthogonalEdgeStyle;rounded=0;orthogonalLoop=1;jettySize=auto;html=1;exitX=0;exitY=0.5;exitDx=0;exitDy=0;entryX=1;entryY=0.75;entryDx=0;entryDy=0;" parent="1" source="3njOR3xyvIwaTRATh9eq-68" target="3njOR3xyvIwaTRATh9eq-59" edge="1">
          <mxGeometry relative="1" as="geometry" />
        </mxCell>
        <mxCell id="3njOR3xyvIwaTRATh9eq-68" value="car2" style="text;html=1;align=center;verticalAlign=middle;whiteSpace=wrap;rounded=0;" parent="1" vertex="1">
          <mxGeometry x="540" y="1075" width="50" height="30" as="geometry" />
        </mxCell>
        <mxCell id="3njOR3xyvIwaTRATh9eq-70" style="edgeStyle=orthogonalEdgeStyle;rounded=0;orthogonalLoop=1;jettySize=auto;html=1;exitX=1;exitY=0.5;exitDx=0;exitDy=0;entryX=0.25;entryY=1;entryDx=0;entryDy=0;" parent="1" source="3njOR3xyvIwaTRATh9eq-69" target="3njOR3xyvIwaTRATh9eq-57" edge="1">
          <mxGeometry relative="1" as="geometry" />
        </mxCell>
        <mxCell id="3njOR3xyvIwaTRATh9eq-69" value="print(person:person!)" style="text;html=1;align=center;verticalAlign=middle;whiteSpace=wrap;rounded=0;" parent="1" vertex="1">
          <mxGeometry x="-40" y="1150" width="130" height="30" as="geometry" />
        </mxCell>
        <mxCell id="3njOR3xyvIwaTRATh9eq-71" style="edgeStyle=orthogonalEdgeStyle;rounded=0;orthogonalLoop=1;jettySize=auto;html=1;exitX=1;exitY=0.5;exitDx=0;exitDy=0;entryX=0;entryY=0.5;entryDx=0;entryDy=0;dashed=1;dashPattern=12 12;" parent="1" source="3njOR3xyvIwaTRATh9eq-72" target="3njOR3xyvIwaTRATh9eq-74" edge="1">
          <mxGeometry relative="1" as="geometry" />
        </mxCell>
        <mxCell id="3njOR3xyvIwaTRATh9eq-72" value="Person&lt;div&gt;Max Mustermann&lt;/div&gt;" style="rounded=1;whiteSpace=wrap;html=1;" parent="1" vertex="1">
          <mxGeometry x="80" y="1250" width="120" height="60" as="geometry" />
        </mxCell>
        <mxCell id="3njOR3xyvIwaTRATh9eq-73" style="edgeStyle=orthogonalEdgeStyle;rounded=0;orthogonalLoop=1;jettySize=auto;html=1;exitX=0.5;exitY=1;exitDx=0;exitDy=0;entryX=0.5;entryY=1;entryDx=0;entryDy=0;" parent="1" source="3njOR3xyvIwaTRATh9eq-74" target="3njOR3xyvIwaTRATh9eq-72" edge="1">
          <mxGeometry relative="1" as="geometry" />
        </mxCell>
        <mxCell id="3njOR3xyvIwaTRATh9eq-74" value="Car&lt;div&gt;VW Polo&lt;/div&gt;" style="rounded=1;whiteSpace=wrap;html=1;" parent="1" vertex="1">
          <mxGeometry x="310" y="1250" width="120" height="60" as="geometry" />
        </mxCell>
        <mxCell id="3njOR3xyvIwaTRATh9eq-75" style="edgeStyle=orthogonalEdgeStyle;rounded=0;orthogonalLoop=1;jettySize=auto;html=1;exitX=1;exitY=0.5;exitDx=0;exitDy=0;entryX=0;entryY=0.5;entryDx=0;entryDy=0;" parent="1" source="3njOR3xyvIwaTRATh9eq-76" target="3njOR3xyvIwaTRATh9eq-72" edge="1">
          <mxGeometry relative="1" as="geometry" />
        </mxCell>
        <mxCell id="3njOR3xyvIwaTRATh9eq-76" value="person" style="text;html=1;align=center;verticalAlign=middle;whiteSpace=wrap;rounded=0;" parent="1" vertex="1">
          <mxGeometry x="-40" y="1265" width="50" height="30" as="geometry" />
        </mxCell>
        <mxCell id="3njOR3xyvIwaTRATh9eq-77" style="edgeStyle=orthogonalEdgeStyle;rounded=0;orthogonalLoop=1;jettySize=auto;html=1;exitX=0;exitY=0.5;exitDx=0;exitDy=0;entryX=1;entryY=0.5;entryDx=0;entryDy=0;" parent="1" source="3njOR3xyvIwaTRATh9eq-78" target="3njOR3xyvIwaTRATh9eq-74" edge="1">
          <mxGeometry relative="1" as="geometry" />
        </mxCell>
        <mxCell id="3njOR3xyvIwaTRATh9eq-78" value="car" style="text;html=1;align=center;verticalAlign=middle;whiteSpace=wrap;rounded=0;" parent="1" vertex="1">
          <mxGeometry x="540" y="1265" width="50" height="30" as="geometry" />
        </mxCell>
        <mxCell id="3njOR3xyvIwaTRATh9eq-79" value="person2 = nil" style="text;html=1;align=center;verticalAlign=middle;whiteSpace=wrap;rounded=0;" parent="1" vertex="1">
          <mxGeometry x="-50" y="1310" width="90" height="30" as="geometry" />
        </mxCell>
        <mxCell id="3njOR3xyvIwaTRATh9eq-81" value="// 8" style="text;html=1;align=center;verticalAlign=middle;whiteSpace=wrap;rounded=0;" parent="1" vertex="1">
          <mxGeometry x="-64" y="1210" width="60" height="30" as="geometry" />
        </mxCell>
        <mxCell id="3njOR3xyvIwaTRATh9eq-82" style="edgeStyle=orthogonalEdgeStyle;rounded=0;orthogonalLoop=1;jettySize=auto;html=1;exitX=0;exitY=0.5;exitDx=0;exitDy=0;entryX=1;entryY=0.75;entryDx=0;entryDy=0;" parent="1" source="3njOR3xyvIwaTRATh9eq-83" target="3njOR3xyvIwaTRATh9eq-74" edge="1">
          <mxGeometry relative="1" as="geometry" />
        </mxCell>
        <mxCell id="3njOR3xyvIwaTRATh9eq-83" value="car2" style="text;html=1;align=center;verticalAlign=middle;whiteSpace=wrap;rounded=0;" parent="1" vertex="1">
          <mxGeometry x="540" y="1295" width="50" height="30" as="geometry" />
        </mxCell>
        <mxCell id="3njOR3xyvIwaTRATh9eq-84" style="edgeStyle=orthogonalEdgeStyle;rounded=0;orthogonalLoop=1;jettySize=auto;html=1;exitX=1;exitY=0.5;exitDx=0;exitDy=0;entryX=0;entryY=0.5;entryDx=0;entryDy=0;dashed=1;dashPattern=12 12;" parent="1" source="3njOR3xyvIwaTRATh9eq-85" target="3njOR3xyvIwaTRATh9eq-87" edge="1">
          <mxGeometry relative="1" as="geometry" />
        </mxCell>
        <mxCell id="3njOR3xyvIwaTRATh9eq-85" value="Person&lt;div&gt;Max Mustermann&lt;/div&gt;" style="rounded=1;whiteSpace=wrap;html=1;" parent="1" vertex="1">
          <mxGeometry x="80" y="1410" width="120" height="60" as="geometry" />
        </mxCell>
        <mxCell id="3njOR3xyvIwaTRATh9eq-86" style="edgeStyle=orthogonalEdgeStyle;rounded=0;orthogonalLoop=1;jettySize=auto;html=1;exitX=0.5;exitY=1;exitDx=0;exitDy=0;entryX=0.5;entryY=1;entryDx=0;entryDy=0;" parent="1" source="3njOR3xyvIwaTRATh9eq-87" target="3njOR3xyvIwaTRATh9eq-85" edge="1">
          <mxGeometry relative="1" as="geometry" />
        </mxCell>
        <mxCell id="3njOR3xyvIwaTRATh9eq-87" value="Car&lt;div&gt;VW Polo&lt;/div&gt;" style="rounded=1;whiteSpace=wrap;html=1;" parent="1" vertex="1">
          <mxGeometry x="310" y="1410" width="120" height="60" as="geometry" />
        </mxCell>
        <mxCell id="3njOR3xyvIwaTRATh9eq-89" value="person = nil" style="text;html=1;align=center;verticalAlign=middle;whiteSpace=wrap;rounded=0;" parent="1" vertex="1">
          <mxGeometry x="-40" y="1425" width="80" height="30" as="geometry" />
        </mxCell>
        <mxCell id="3njOR3xyvIwaTRATh9eq-90" style="edgeStyle=orthogonalEdgeStyle;rounded=0;orthogonalLoop=1;jettySize=auto;html=1;exitX=0;exitY=0.5;exitDx=0;exitDy=0;entryX=1;entryY=0.5;entryDx=0;entryDy=0;" parent="1" source="3njOR3xyvIwaTRATh9eq-91" target="3njOR3xyvIwaTRATh9eq-87" edge="1">
          <mxGeometry relative="1" as="geometry" />
        </mxCell>
        <mxCell id="3njOR3xyvIwaTRATh9eq-91" value="car" style="text;html=1;align=center;verticalAlign=middle;whiteSpace=wrap;rounded=0;" parent="1" vertex="1">
          <mxGeometry x="540" y="1425" width="50" height="30" as="geometry" />
        </mxCell>
        <mxCell id="3njOR3xyvIwaTRATh9eq-92" value="person2 = nil" style="text;html=1;align=center;verticalAlign=middle;whiteSpace=wrap;rounded=0;" parent="1" vertex="1">
          <mxGeometry x="-50" y="1470" width="90" height="30" as="geometry" />
        </mxCell>
        <mxCell id="3njOR3xyvIwaTRATh9eq-93" value="// 9" style="text;html=1;align=center;verticalAlign=middle;whiteSpace=wrap;rounded=0;" parent="1" vertex="1">
          <mxGeometry x="-64" y="1368" width="60" height="30" as="geometry" />
        </mxCell>
        <mxCell id="3njOR3xyvIwaTRATh9eq-94" style="edgeStyle=orthogonalEdgeStyle;rounded=0;orthogonalLoop=1;jettySize=auto;html=1;exitX=0;exitY=0.5;exitDx=0;exitDy=0;entryX=1;entryY=0.75;entryDx=0;entryDy=0;" parent="1" source="3njOR3xyvIwaTRATh9eq-95" target="3njOR3xyvIwaTRATh9eq-87" edge="1">
          <mxGeometry relative="1" as="geometry" />
        </mxCell>
        <mxCell id="3njOR3xyvIwaTRATh9eq-95" value="car2" style="text;html=1;align=center;verticalAlign=middle;whiteSpace=wrap;rounded=0;" parent="1" vertex="1">
          <mxGeometry x="540" y="1455" width="50" height="30" as="geometry" />
        </mxCell>
        <mxCell id="3njOR3xyvIwaTRATh9eq-96" style="edgeStyle=orthogonalEdgeStyle;rounded=0;orthogonalLoop=1;jettySize=auto;html=1;exitX=1;exitY=0.5;exitDx=0;exitDy=0;entryX=0;entryY=0.5;entryDx=0;entryDy=0;dashed=1;dashPattern=12 12;" parent="1" source="3njOR3xyvIwaTRATh9eq-97" target="3njOR3xyvIwaTRATh9eq-99" edge="1">
          <mxGeometry relative="1" as="geometry" />
        </mxCell>
        <mxCell id="3njOR3xyvIwaTRATh9eq-97" value="Person&lt;div&gt;Max Mustermann&lt;/div&gt;" style="rounded=1;whiteSpace=wrap;html=1;" parent="1" vertex="1">
          <mxGeometry x="80" y="1600" width="120" height="60" as="geometry" />
        </mxCell>
        <mxCell id="3njOR3xyvIwaTRATh9eq-98" style="edgeStyle=orthogonalEdgeStyle;rounded=0;orthogonalLoop=1;jettySize=auto;html=1;exitX=0.5;exitY=1;exitDx=0;exitDy=0;entryX=0.5;entryY=1;entryDx=0;entryDy=0;" parent="1" source="3njOR3xyvIwaTRATh9eq-99" target="3njOR3xyvIwaTRATh9eq-97" edge="1">
          <mxGeometry relative="1" as="geometry" />
        </mxCell>
        <mxCell id="3njOR3xyvIwaTRATh9eq-99" value="Car&lt;div&gt;VW Polo&lt;/div&gt;" style="rounded=1;whiteSpace=wrap;html=1;" parent="1" vertex="1">
          <mxGeometry x="310" y="1600" width="120" height="60" as="geometry" />
        </mxCell>
        <mxCell id="3njOR3xyvIwaTRATh9eq-100" value="person = nil" style="text;html=1;align=center;verticalAlign=middle;whiteSpace=wrap;rounded=0;" parent="1" vertex="1">
          <mxGeometry x="-40" y="1615" width="80" height="30" as="geometry" />
        </mxCell>
        <mxCell id="3njOR3xyvIwaTRATh9eq-101" style="edgeStyle=orthogonalEdgeStyle;rounded=0;orthogonalLoop=1;jettySize=auto;html=1;exitX=0;exitY=0.5;exitDx=0;exitDy=0;entryX=1;entryY=0.5;entryDx=0;entryDy=0;" parent="1" source="3njOR3xyvIwaTRATh9eq-102" target="3njOR3xyvIwaTRATh9eq-99" edge="1">
          <mxGeometry relative="1" as="geometry" />
        </mxCell>
        <mxCell id="3njOR3xyvIwaTRATh9eq-102" value="car" style="text;html=1;align=center;verticalAlign=middle;whiteSpace=wrap;rounded=0;" parent="1" vertex="1">
          <mxGeometry x="540" y="1615" width="50" height="30" as="geometry" />
        </mxCell>
        <mxCell id="3njOR3xyvIwaTRATh9eq-103" value="person2 = nil" style="text;html=1;align=center;verticalAlign=middle;whiteSpace=wrap;rounded=0;" parent="1" vertex="1">
          <mxGeometry x="-50" y="1660" width="90" height="30" as="geometry" />
        </mxCell>
        <mxCell id="3njOR3xyvIwaTRATh9eq-104" value="// 10" style="text;html=1;align=center;verticalAlign=middle;whiteSpace=wrap;rounded=0;" parent="1" vertex="1">
          <mxGeometry x="-64" y="1559" width="60" height="30" as="geometry" />
        </mxCell>
        <mxCell id="3njOR3xyvIwaTRATh9eq-106" value="car2 = nil" style="text;html=1;align=center;verticalAlign=middle;whiteSpace=wrap;rounded=0;" parent="1" vertex="1">
          <mxGeometry x="540" y="1645" width="80" height="30" as="geometry" />
        </mxCell>
        <mxCell id="3njOR3xyvIwaTRATh9eq-107" style="edgeStyle=orthogonalEdgeStyle;rounded=0;orthogonalLoop=1;jettySize=auto;html=1;exitX=1;exitY=0.5;exitDx=0;exitDy=0;entryX=0;entryY=0.5;entryDx=0;entryDy=0;dashed=1;dashPattern=12 12;" parent="1" source="3njOR3xyvIwaTRATh9eq-108" target="3njOR3xyvIwaTRATh9eq-110" edge="1">
          <mxGeometry relative="1" as="geometry" />
        </mxCell>
        <mxCell id="3njOR3xyvIwaTRATh9eq-108" value="Person&lt;div&gt;Max Mustermann&lt;/div&gt;" style="rounded=1;whiteSpace=wrap;html=1;" parent="1" vertex="1">
          <mxGeometry x="80" y="1770" width="120" height="60" as="geometry" />
        </mxCell>
        <mxCell id="3njOR3xyvIwaTRATh9eq-109" style="edgeStyle=orthogonalEdgeStyle;rounded=0;orthogonalLoop=1;jettySize=auto;html=1;exitX=0.5;exitY=1;exitDx=0;exitDy=0;entryX=0.5;entryY=1;entryDx=0;entryDy=0;" parent="1" source="3njOR3xyvIwaTRATh9eq-110" target="3njOR3xyvIwaTRATh9eq-108" edge="1">
          <mxGeometry relative="1" as="geometry" />
        </mxCell>
        <mxCell id="3njOR3xyvIwaTRATh9eq-110" value="Car&lt;div&gt;VW Polo&lt;/div&gt;" style="rounded=1;whiteSpace=wrap;html=1;" parent="1" vertex="1">
          <mxGeometry x="310" y="1770" width="120" height="60" as="geometry" />
        </mxCell>
        <mxCell id="3njOR3xyvIwaTRATh9eq-111" value="person = nil" style="text;html=1;align=center;verticalAlign=middle;whiteSpace=wrap;rounded=0;" parent="1" vertex="1">
          <mxGeometry x="-40" y="1785" width="80" height="30" as="geometry" />
        </mxCell>
        <mxCell id="3njOR3xyvIwaTRATh9eq-113" value="car = nil" style="text;html=1;align=center;verticalAlign=middle;whiteSpace=wrap;rounded=0;" parent="1" vertex="1">
          <mxGeometry x="540" y="1785" width="50" height="30" as="geometry" />
        </mxCell>
        <mxCell id="3njOR3xyvIwaTRATh9eq-114" value="person2 = nil" style="text;html=1;align=center;verticalAlign=middle;whiteSpace=wrap;rounded=0;" parent="1" vertex="1">
          <mxGeometry x="-50" y="1830" width="90" height="30" as="geometry" />
        </mxCell>
        <mxCell id="3njOR3xyvIwaTRATh9eq-115" value="// 11" style="text;html=1;align=center;verticalAlign=middle;whiteSpace=wrap;rounded=0;" parent="1" vertex="1">
          <mxGeometry x="-64" y="1731" width="60" height="30" as="geometry" />
        </mxCell>
        <mxCell id="3njOR3xyvIwaTRATh9eq-116" value="car2 = nil" style="text;html=1;align=center;verticalAlign=middle;whiteSpace=wrap;rounded=0;" parent="1" vertex="1">
          <mxGeometry x="525" y="1815" width="80" height="30" as="geometry" />
        </mxCell>
        <mxCell id="3njOR3xyvIwaTRATh9eq-117" value="retain count: 0" style="text;html=1;align=center;verticalAlign=middle;whiteSpace=wrap;rounded=0;" parent="1" vertex="1">
          <mxGeometry x="310" y="1740" width="180" height="30" as="geometry" />
        </mxCell>
        <mxCell id="3njOR3xyvIwaTRATh9eq-118" value="retain count: 1" style="text;html=1;align=center;verticalAlign=middle;whiteSpace=wrap;rounded=0;" parent="1" vertex="1">
          <mxGeometry x="310" y="1570" width="180" height="30" as="geometry" />
        </mxCell>
        <mxCell id="3njOR3xyvIwaTRATh9eq-119" value="retain count: 2" style="text;html=1;align=center;verticalAlign=middle;whiteSpace=wrap;rounded=0;" parent="1" vertex="1">
          <mxGeometry x="310" y="1380" width="180" height="30" as="geometry" />
        </mxCell>
        <mxCell id="3njOR3xyvIwaTRATh9eq-120" value="retain count: 2" style="text;html=1;align=center;verticalAlign=middle;whiteSpace=wrap;rounded=0;" parent="1" vertex="1">
          <mxGeometry x="310" y="1220" width="180" height="30" as="geometry" />
        </mxCell>
        <mxCell id="3njOR3xyvIwaTRATh9eq-121" value="retain count: 2" style="text;html=1;align=center;verticalAlign=middle;whiteSpace=wrap;rounded=0;" parent="1" vertex="1">
          <mxGeometry x="294" y="1000" width="180" height="30" as="geometry" />
        </mxCell>
        <mxCell id="3njOR3xyvIwaTRATh9eq-122" value="retain count: 2" style="text;html=1;align=center;verticalAlign=middle;whiteSpace=wrap;rounded=0;" parent="1" vertex="1">
          <mxGeometry x="304" y="850" width="180" height="30" as="geometry" />
        </mxCell>
        <mxCell id="3njOR3xyvIwaTRATh9eq-123" value="retain count: 1" style="text;html=1;align=center;verticalAlign=middle;whiteSpace=wrap;rounded=0;" parent="1" vertex="1">
          <mxGeometry x="304" y="690" width="180" height="30" as="geometry" />
        </mxCell>
        <mxCell id="3njOR3xyvIwaTRATh9eq-124" value="retain count: 1" style="text;html=1;align=center;verticalAlign=middle;whiteSpace=wrap;rounded=0;" parent="1" vertex="1">
          <mxGeometry x="310" y="530" width="180" height="30" as="geometry" />
        </mxCell>
        <mxCell id="3njOR3xyvIwaTRATh9eq-125" value="retain count: 1" style="text;html=1;align=center;verticalAlign=middle;whiteSpace=wrap;rounded=0;" parent="1" vertex="1">
          <mxGeometry x="324" y="390" width="180" height="30" as="geometry" />
        </mxCell>
        <mxCell id="3njOR3xyvIwaTRATh9eq-127" value="retain count: 1" style="text;html=1;align=center;verticalAlign=middle;whiteSpace=wrap;rounded=0;" parent="1" vertex="1">
          <mxGeometry x="30" y="1739" width="180" height="30" as="geometry" />
        </mxCell>
        <mxCell id="3njOR3xyvIwaTRATh9eq-128" value="retain count: 1" style="text;html=1;align=center;verticalAlign=middle;whiteSpace=wrap;rounded=0;" parent="1" vertex="1">
          <mxGeometry x="25" y="1570" width="180" height="30" as="geometry" />
        </mxCell>
        <mxCell id="3njOR3xyvIwaTRATh9eq-129" value="retain count: 1" style="text;html=1;align=center;verticalAlign=middle;whiteSpace=wrap;rounded=0;" parent="1" vertex="1">
          <mxGeometry x="30" y="1380" width="180" height="30" as="geometry" />
        </mxCell>
        <mxCell id="3njOR3xyvIwaTRATh9eq-130" value="retain count: 2" style="text;html=1;align=center;verticalAlign=middle;whiteSpace=wrap;rounded=0;" parent="1" vertex="1">
          <mxGeometry x="25" y="1220" width="180" height="30" as="geometry" />
        </mxCell>
        <mxCell id="3njOR3xyvIwaTRATh9eq-131" value="retain count: 4" style="text;html=1;align=center;verticalAlign=middle;whiteSpace=wrap;rounded=0;" parent="1" vertex="1">
          <mxGeometry x="25" y="1000" width="180" height="30" as="geometry" />
        </mxCell>
        <mxCell id="3njOR3xyvIwaTRATh9eq-132" value="retain count: 3" style="text;html=1;align=center;verticalAlign=middle;whiteSpace=wrap;rounded=0;" parent="1" vertex="1">
          <mxGeometry x="20" y="850" width="180" height="30" as="geometry" />
        </mxCell>
        <mxCell id="3njOR3xyvIwaTRATh9eq-133" value="retain count: 3" style="text;html=1;align=center;verticalAlign=middle;whiteSpace=wrap;rounded=0;" parent="1" vertex="1">
          <mxGeometry x="20" y="690" width="180" height="30" as="geometry" />
        </mxCell>
        <mxCell id="3njOR3xyvIwaTRATh9eq-134" value="retain count: 2" style="text;html=1;align=center;verticalAlign=middle;whiteSpace=wrap;rounded=0;" parent="1" vertex="1">
          <mxGeometry x="30" y="530" width="180" height="30" as="geometry" />
        </mxCell>
        <mxCell id="3njOR3xyvIwaTRATh9eq-135" value="retain count: 1" style="text;html=1;align=center;verticalAlign=middle;whiteSpace=wrap;rounded=0;" parent="1" vertex="1">
          <mxGeometry x="30" y="390" width="180" height="30" as="geometry" />
        </mxCell>
        <mxCell id="3njOR3xyvIwaTRATh9eq-136" value="retain count: 1" style="text;html=1;align=center;verticalAlign=middle;whiteSpace=wrap;rounded=0;" parent="1" vertex="1">
          <mxGeometry x="30" y="220" width="180" height="30" as="geometry" />
        </mxCell>
        <mxCell id="3njOR3xyvIwaTRATh9eq-147" style="edgeStyle=orthogonalEdgeStyle;rounded=0;orthogonalLoop=1;jettySize=auto;html=1;exitX=0.5;exitY=1;exitDx=0;exitDy=0;" parent="1" edge="1">
          <mxGeometry relative="1" as="geometry">
            <mxPoint x="263.5" y="1950" as="sourcePoint" />
            <mxPoint x="263.5" y="1950" as="targetPoint" />
          </mxGeometry>
        </mxCell>
        <mxCell id="3njOR3xyvIwaTRATh9eq-153" value="Person&lt;div&gt;Max Mustermann&lt;/div&gt;" style="rounded=1;whiteSpace=wrap;html=1;" parent="1" vertex="1">
          <mxGeometry x="78" y="1947" width="120" height="60" as="geometry" />
        </mxCell>
        <mxCell id="3njOR3xyvIwaTRATh9eq-157" value="retain count: 0" style="text;html=1;align=center;verticalAlign=middle;whiteSpace=wrap;rounded=0;" parent="1" vertex="1">
          <mxGeometry x="28" y="1916" width="180" height="30" as="geometry" />
        </mxCell>
        <mxCell id="3njOR3xyvIwaTRATh9eq-158" value="" style="endArrow=classic;html=1;rounded=0;" parent="1" edge="1">
          <mxGeometry width="50" height="50" relative="1" as="geometry">
            <mxPoint x="205" y="1871" as="sourcePoint" />
            <mxPoint x="191" y="1912" as="targetPoint" />
          </mxGeometry>
        </mxCell>
      </root>
    </mxGraphModel>
  </diagram>
</mxfile>
